<?xml version="1.0" encoding="UTF-8"?>
<svg width="46px" height="42px" viewBox="0 0 46 42" version="1.1" xmlns="http://www.w3.org/2000/svg" xmlns:xlink="http://www.w3.org/1999/xlink">
    <title>8CF4C432-C773-4F4A-859A-31D1EBFE09FC</title>
    <defs>
        <polygon id="path-1" points="0.6076 0.6454 20.947 0.6454 20.947 12.6214 0.6076 12.6214"></polygon>
    </defs>
    <g id="version-4" stroke="none" stroke-width="1" fill="none" fill-rule="evenodd">
        <g id="Collective-White-gg" transform="translate(-24.000000, -24.000000)">
            <g id="Group-8" transform="translate(24.000000, 24.000000)">
                <path d="M12.4212,41.3547 L12.4212,40.2527 C12.9392,40.1687 13.4142,40.1167 13.8762,40.0107 C15.1402,39.7217 15.4132,39.1127 14.7272,38.0257 C13.9182,36.7447 13.0642,35.4917 12.2262,34.2277 C10.0422,30.9347 7.8612,27.6397 5.6672,24.3537 C5.1232,23.5387 4.5252,22.7657 3.7762,22.1147 C2.9922,21.4337 2.0632,21.1547 1.0612,21.0447 C0.7172,21.0067 0.3732,20.9837 0.0002,20.9507 L0.0002,19.8417 C0.4122,19.8007 0.8292,19.7667 1.2452,19.7167 C3.5132,19.4507 5.3162,18.3507 6.7202,16.5897 C8.6982,14.1067 10.6592,11.6097 12.6052,9.1007 C13.5192,7.9207 14.3582,6.6867 14.8622,5.2617 C14.9432,5.0337 15.0102,4.7927 15.0312,4.5537 C15.1392,3.3197 14.5382,2.5937 13.1952,2.3447 C12.6612,2.2467 12.1172,2.1987 11.5642,2.1257 L11.5642,1.0267 C15.3492,1.1467 19.1242,1.3487 22.9242,1.0277 L22.9242,2.1127 C22.3242,2.2727 21.7192,2.4107 21.1302,2.5967 C19.4582,3.1257 18.0642,4.0967 16.9662,5.4417 C15.2412,7.5577 13.5732,9.7187 11.8862,11.8647 C10.2552,13.9407 8.6312,16.0217 7.0042,18.1007 C6.9772,18.1347 6.9532,18.1707 6.9172,18.2217 C7.6312,19.2197 8.3422,20.2157 9.0542,21.2117 C12.7432,26.3767 16.4412,31.5377 20.1202,36.7097 C20.9532,37.8817 21.9022,38.9107 23.2282,39.5197 C23.7702,39.7687 24.3412,39.9587 24.9102,40.1387 C25.1152,40.2047 25.1742,40.2867 25.1642,40.4837 C25.1502,40.7737 25.1612,41.0647 25.1612,41.3547 L24.7592,41.3547 C24.1622,41.3107 23.5672,41.2307 22.9702,41.2267 C20.3192,41.2127 17.6682,41.2117 15.0172,41.2267 C14.3302,41.2307 13.6442,41.3107 12.9582,41.3547 L12.4212,41.3547 Z" id="Fill-1" fill="#0E0C0A"></path>
                <g id="Group-5" transform="translate(25.000000, 0.355000)">
                    <mask id="mask-2" fill="white">
                        <use xlink:href="#path-1"></use>
                    </mask>
                    <g id="Clip-4"></g>
                    <path d="M20.9476,1.1144 C20.8806,1.7434 20.7846,2.3724 20.7526,3.0034 C20.6686,4.6404 20.5806,6.2794 20.5566,7.9184 C20.5406,9.0764 20.6256,10.2364 20.6676,11.3964 C20.6816,11.7974 20.7056,12.1984 20.7256,12.6214 L19.4616,12.6214 C19.2626,11.2734 19.1086,9.9254 18.8546,8.5944 C18.6616,7.5864 18.4156,6.5744 18.0636,5.6114 C17.4006,3.7954 16.0486,2.7004 14.1596,2.3334 C13.2136,2.1484 12.2426,2.0284 11.2786,2.0004 C9.1906,1.9394 7.1016,1.9564 5.0126,1.9424 C3.8056,1.9344 2.5996,1.9234 1.3936,1.9214 C1.1396,1.9214 0.8856,1.9554 0.6076,1.9754 L0.6076,0.8454 L1.0146,0.8454 C4.1666,0.8454 7.3166,0.8544 10.4686,0.8434 C12.9596,0.8344 15.4496,0.8114 17.9396,0.7744 C18.9426,0.7594 19.9446,0.6894 20.9476,0.6454 L20.9476,1.1144 Z" id="Fill-3" fill="#0E0C0A" mask="url(#mask-2)"></path>
                </g>
                <path d="M36.9027,13.5788 L38.1897,13.5788 C37.8817,18.9638 37.9997,24.3228 38.3787,29.7328 C37.9697,29.7328 37.5847,29.7438 37.2007,29.7208 C37.1407,29.7178 37.0547,29.5708 37.0407,29.4798 C36.8527,28.3158 36.6877,27.1488 36.4907,25.9868 C36.3427,25.1188 35.9837,24.3348 35.4407,23.6388 C34.8227,22.8448 33.9787,22.4518 33.0087,22.3238 C32.4357,22.2478 31.8537,22.2168 31.2757,22.2118 C29.5777,22.1978 27.8797,22.2068 26.1807,22.2068 L25.7427,22.2068 C25.7427,21.8658 25.7257,21.5548 25.7557,21.2488 C25.7617,21.1798 25.9297,21.0748 26.0247,21.0728 C27.0077,21.0598 27.9907,21.0678 28.9737,21.0638 C30.0467,21.0598 31.1187,21.0608 32.1907,21.0418 C34.0097,21.0088 35.2037,20.0868 35.8957,18.4328 C36.3267,17.4018 36.4357,16.3058 36.6267,15.2248 C36.7227,14.6788 36.8097,14.1308 36.9027,13.5788" id="Fill-6" fill="#0E0C0A"></path>
            </g>
        </g>
    </g>
</svg>