<svg width="7" height="8" viewBox="0 0 7 8" fill="none" xmlns="http://www.w3.org/2000/svg">
<path d="M0.00101559 4.24047L0 4.00441C0 3.02332 0.0574539 2.12888 0.143998 1.5458L0.219816 1.18322C0.261997 0.991188 0.317451 0.772535 0.375268 0.660914C0.586902 0.252616 1.00072 0 1.44362 0H1.48216C1.77089 0.00954654 2.37743 0.262897 2.37743 0.271709C3.35341 0.681221 5.23634 1.91715 6.10598 2.79826L6.35869 3.06279C6.42487 3.13449 6.49922 3.21934 6.54538 3.28548C6.69956 3.48963 6.77665 3.74224 6.77665 3.99486C6.77665 4.27685 6.6901 4.53901 6.52647 4.75344L6.26683 5.03365L6.20865 5.09345C5.41957 5.94896 3.35923 7.3479 2.28143 7.77602L2.1187 7.83839C1.92289 7.90857 1.64853 7.99229 1.48216 8C1.27053 8 1.06835 7.9508 0.875626 7.85386C0.634902 7.71801 0.442904 7.50358 0.336723 7.25096C0.269088 7.07619 0.162907 6.55113 0.162907 6.54158C0.0655656 6.01217 0.00912307 5.17679 0.00101559 4.24047Z" fill="white"/>
</svg>
